<?xml version="1.0" encoding="UTF-8" standalone="no"?>
<!-- Created with Inkscape (http://www.inkscape.org/) -->

<svg
   xmlns:dc="http://purl.org/dc/elements/1.1/"
   xmlns:cc="http://creativecommons.org/ns#"
   xmlns:rdf="http://www.w3.org/1999/02/22-rdf-syntax-ns#"
   xmlns:svg="http://www.w3.org/2000/svg"
   xmlns="http://www.w3.org/2000/svg"
   xmlns:sodipodi="http://sodipodi.sourceforge.net/DTD/sodipodi-0.dtd"
   xmlns:inkscape="http://www.inkscape.org/namespaces/inkscape"
   width="700mm"
   height="700mm"
   viewBox="0 0 700 700"
   version="1.1"
   id="svg1263"
   inkscape:export-filename="C:\Users\suitedoalex\sites\cedae-logo-0.png"
   inkscape:export-xdpi="148.6263"
   inkscape:export-ydpi="148.6263"
   inkscape:version="0.92.4 (5da689c313, 2019-01-14)"
   sodipodi:docname="cedae-logo.svg">
  <defs
     id="defs1257" />
  <sodipodi:namedview
     id="base"
     pagecolor="#ffffff"
     bordercolor="#666666"
     borderopacity="1.0"
     inkscape:pageopacity="0.0"
     inkscape:pageshadow="2"
     inkscape:zoom="0.175"
     inkscape:cx="799.37454"
     inkscape:cy="820.13893"
     inkscape:document-units="mm"
     inkscape:current-layer="layer1"
     showgrid="false"
     inkscape:window-width="1600"
     inkscape:window-height="837"
     inkscape:window-x="-8"
     inkscape:window-y="-8"
     inkscape:window-maximized="1" />
  <metadata
     id="metadata1260">
    <rdf:RDF>
      <cc:Work
         rdf:about="">
        <dc:format>image/svg+xml</dc:format>
        <dc:type
           rdf:resource="http://purl.org/dc/dcmitype/StillImage" />
        <dc:title></dc:title>
      </cc:Work>
    </rdf:RDF>
  </metadata>
  <g
     inkscape:label="Layer 1"
     inkscape:groupmode="layer"
     id="layer1"
     transform="translate(0,403)">
    <path
       d="m 188.7123,36.575461 c -11.98736,2.464918 -25.06828,3.68792 -39.24126,3.68792 -18.84687,0 -33.44161,-2.193009 -43.71801,-6.59676 -10.279654,-4.391633 -15.433224,-10.642299 -15.433224,-18.73456 0,-8.0804388 5.237216,-14.33199222 15.714594,-18.7561356 10.47443,-4.425031 25.26038,-6.6437524 44.36261,-6.6437524 10.81135,0 23.52519,0.7034171 38.14623,2.1191199 v 6.4277028 c -16.63642,-2.2846303 -29.46316,-3.4186705 -38.48405,-3.4186705 -13.19056,0 -23.38657,1.770367 -30.60991,5.31642048 -7.22657,3.55226052 -10.84061,8.55923652 -10.84061,15.02358732 0,6.18594 3.86526,11.044549 11.56738,14.588533 7.73228,3.555512 18.28886,5.325879 31.67745,5.325879 11.45566,0 23.72469,-1.403881 36.8588,-4.212232 z m 14.92872,3.152967 V -8.5940165 h 67.86475 v 5.124606 H 220.86559 V 12.043909 h 42.43265 v 5.060176 h -42.43265 v 17.499737 h 54.16643 v 5.124606 z m 92.7622,0 V -8.5940165 h 40.35786 c 12.04352,0 21.76398,0.5349522 29.18563,1.6048567 7.42166,1.0580822 13.83488,2.8639151 19.24114,5.4145446 8.59766,4.0464256 12.88289,9.3838314 12.88289,15.9950722 0,7.465392 -5.03918,13.518924 -15.09658,18.153502 -5.46242,2.553584 -11.79023,4.379219 -18.98962,5.497004 -7.19644,1.102415 -16.18719,1.658056 -26.96928,1.658056 z m 17.22458,-5.124606 h 22.06959 c 15.77015,0 26.94533,-1.684656 33.49717,-5.05988 7.05871,-3.590978 10.58703,-8.41412 10.58703,-14.467947 0,-5.6834978 -3.47306,-10.1395618 -10.41797,-13.3853328 -4.22908,-1.98316532 -9.24197,-3.3302996 -15.09659,-4.0665238 -5.85552,-0.7241069 -14.67425,-1.0935489 -26.44054,-1.0935489 H 313.6278 Z m 94.35848,5.124606 48.1726,-48.3224445 h 17.05966 L 520.63393,39.728428 H 502.01139 L 488.79037,26.346051 H 437.42343 L 423.9784,39.728428 Z m 34.33743,-18.477723 h 41.48097 L 463.0778,0.40795848 Z m 95.90187,18.477723 V -8.5940165 h 67.8618 v 5.124606 H 555.45016 V 12.043909 h 42.43264 v 5.060176 h -42.43264 v 17.499737 h 54.16642 v 5.124606 z"
       style="fill:#234c97;fill-opacity:1;fill-rule:nonzero;stroke:none;stroke-width:10.42647839"
       id="path28"
       inkscape:connector-curvature="0"
       inkscape:export-xdpi="19.363625"
       inkscape:export-ydpi="19.363625" />
    <g
       id="g38"
       transform="matrix(0,1.8254679,1.8439228,0,-813.03458,804.59532)"
       inkscape:export-xdpi="19.363625"
       inkscape:export-ydpi="19.363625">
      <path
         d="m -420.7331,543.2845 c 1.3504,-6.5015 2.0208,-13.5958 2.0208,-21.2817 0,-10.2217 -1.2013,-18.1369 -3.6139,-23.7101 -2.4061,-5.5749 -5.8303,-8.3704 -10.2634,-8.3704 -4.4266,0 -7.8508,2.8403 -10.2747,8.5226 -2.424,5.6807 -3.6397,13.7002 -3.6397,24.0597 0,5.8631 0.3852,12.759 1.1608,20.6883 h 3.5214 c -1.2515,-9.0226 -1.8731,-15.9791 -1.8731,-20.8712 0,-7.1538 0.9697,-12.6836 2.9126,-16.6011 1.9463,-3.9192 4.6891,-5.8796 8.2298,-5.8796 3.3888,0 6.0506,2.0968 7.992,6.2739 1.9477,4.193 2.9174,9.9187 2.9174,17.1797 0,6.213 -0.769,12.8664 -2.3071,19.9899 z m 1.7277,8.096 h -26.4722 v 36.8059 h 2.8074 v -27.464 h 8.4989 v 23.0128 h 2.7717 v -23.0128 h 9.5867 v 29.3763 h 2.8075 z m 0,50.3088 h -26.4722 v 21.8874 c 0,6.5319 0.2931,11.8037 0.8793,15.8287 0.5794,4.0249 1.5687,7.5033 2.9662,10.4349 2.2164,4.6627 5.1406,6.9871 8.7624,6.9871 4.0899,0 7.4058,-2.7332 9.9445,-8.1876 1.3989,-2.9622 2.3993,-6.3941 3.0116,-10.2989 0.6037,-3.903 0.9082,-8.7789 0.9082,-14.6262 z m -2.8075,9.3415 v 11.969 c 0,8.553 -0.9229,14.6135 -2.772,18.1673 -1.9672,3.8276 -4.6094,5.7416 -7.9253,5.7416 -3.1136,0 -5.5551,-1.8837 -7.333,-5.6503 -1.0862,-2.2938 -1.8246,-5.0123 -2.2277,-8.1876 -0.3969,-3.1754 -0.5993,-7.9586 -0.5993,-14.3397 v -7.7003 z m 2.8075,51.1742 -26.4722,26.1255 v 9.252 l 26.4722,25.7153 V 713.198 l -7.3313,-7.1697 v -27.8586 l 7.3313,-7.2916 z m -10.1225,18.6225 v 22.4966 l -11.418,-11.2411 z m 10.1225,52.0109 h -26.4722 v 36.8039 h 2.8074 V 742.18 h 8.4989 v 23.0128 h 2.7717 V 742.18 h 9.5867 v 29.3763 h 2.8075 z"
         style="fill:none;stroke:#234c97;stroke-width:2.02850008;stroke-linecap:butt;stroke-linejoin:miter;stroke-miterlimit:22.92558479;stroke-dasharray:none;stroke-opacity:1"
         id="path40"
         inkscape:connector-curvature="0" />
    </g>
    <path
       d="m 462.85878,-96.471601 c 1.51325,13.072638 -79.73123,13.288392 -137.08106,16.705288 12.48478,1.578258 162.66449,5.1716 162.66449,-17.142119 0,-4.989238 -12.52526,-9.549638 -33.23236,-13.048698 -66.75347,-11.61318 -227.07097,-6.82433 -227.07097,20.372226 0,22.160324 117.49709,31.9999 178.70361,25.594955 -61.11697,2.260986 -151.51238,-4.444833 -153.11694,-25.003847 -2.37921,-30.498484 206.46734,-30.486074 209.13323,-7.477805"
       style="fill:#6abf2f;fill-opacity:1;fill-rule:evenodd;stroke:none;stroke-width:10.42647839"
       id="path42"
       inkscape:connector-curvature="0"
       inkscape:export-xdpi="19.363625"
       inkscape:export-ydpi="19.363625" />
    <path
       d="m 455.76579,-34.485116 c -110.63433,6.277857 -281.15436,-2.866871 -282.54612,-54.094609 -1.37137,-50.619485 174.79343,-61.581875 282.17077,-54.099035 -116.20848,-14.92754 -326.70244,0.14777 -324.65159,55.4441 1.83243,49.456781 214.51645,67.816874 325.02694,52.749544"
       style="fill:#234c97;fill-opacity:1;fill-rule:evenodd;stroke:none;stroke-width:10.42647839"
       id="path52"
       inkscape:connector-curvature="0"
       inkscape:export-xdpi="19.363625"
       inkscape:export-ydpi="19.363625" />
    <path
       d="m 325.66304,-50.007006 c 82.89987,4.471728 210.66805,-2.045232 211.71076,-38.558237 1.02852,-36.083857 -130.97139,-43.898597 -211.42703,-38.564437 87.07339,-10.6423 244.79267,0.0887 243.2558,39.521736 -1.37137,35.253945 -160.73453,48.341064 -243.53953,37.600938"
       style="fill:#6e7bb9;fill-opacity:1;fill-rule:evenodd;stroke:none;stroke-width:10.42647839"
       id="path62"
       inkscape:connector-curvature="0"
       inkscape:export-xdpi="19.363625"
       inkscape:export-ydpi="19.363625" />
  </g>
</svg>
