<svg width="870" height="316" viewBox="0 0 870 316" fill="none" xmlns="http://www.w3.org/2000/svg">
<path d="M166.034 307.882C146.05 311.991 124.242 314.03 100.614 314.03C69.1931 314.03 44.8616 310.374 27.7294 303.032C10.5917 295.711 2 285.29 2 271.799C2 258.328 10.7312 247.906 28.1985 240.53C45.6608 233.153 70.3111 229.454 102.157 229.454C120.181 229.454 141.377 230.627 165.752 232.987V243.703C138.017 239.894 116.633 238.003 101.594 238.003C79.6035 238.003 62.6053 240.955 50.563 246.867C38.5153 252.789 32.4901 261.136 32.4901 271.913C32.4901 282.226 38.9341 290.326 51.7746 296.234C64.6654 302.162 82.2648 305.113 104.585 305.113C123.684 305.113 144.138 302.773 166.034 298.091V307.882ZM190.923 313.138V232.578H304.063V241.121H219.638V266.984H290.38V275.42H219.638V304.595H309.942V313.138H190.923ZM345.57 313.138V232.578H412.853C432.931 232.578 449.136 233.47 461.509 235.254C473.882 237.018 484.574 240.028 493.587 244.28C507.921 251.026 515.065 259.925 515.065 270.946C515.065 283.392 506.664 293.484 489.897 301.211C480.79 305.468 470.241 308.512 458.238 310.375C446.241 312.213 431.252 313.139 413.277 313.139L345.57 313.138ZM374.286 304.595H411.079C437.371 304.595 456.001 301.786 466.924 296.159C478.692 290.173 484.574 282.132 484.574 272.039C484.574 262.564 478.784 255.135 467.206 249.724C460.155 246.418 451.798 244.172 442.038 242.945C432.276 241.737 417.574 241.121 397.958 241.121H374.286V304.595ZM531.595 313.138L611.906 232.578H640.347L719.395 313.138H688.349L666.307 290.828H580.671L558.256 313.138H531.595ZM588.841 282.333H657.995L623.441 247.586L588.841 282.333ZM748.723 313.138V232.578H861.858V241.121H777.439V266.984H848.18V275.42H777.439V304.595H867.742V313.138H748.723Z" fill="white"/>
<path d="M166.081 307.857C146.094 311.967 124.286 314.007 100.659 314.007C69.2366 314.007 44.9046 310.351 27.7721 303.009C10.6344 295.686 2.04083 285.265 2.04083 271.774C2.04083 258.302 10.7721 247.881 28.24 240.505C45.7029 233.128 70.3555 229.428 102.201 229.428C120.225 229.428 141.424 230.6 165.799 232.961V243.677C138.063 239.869 116.678 237.977 101.639 237.977C79.6479 237.977 62.6489 240.928 50.6061 246.841C38.5582 252.764 32.5317 261.111 32.5317 271.887C32.5317 282.2 38.9775 290.301 51.8182 296.209C64.7078 302.136 82.3092 305.088 104.63 305.088C123.729 305.088 144.182 302.747 166.081 298.066V307.857ZM190.968 313.115V232.552H304.113V241.095H219.686V266.96H290.43V275.395H219.686V304.571H309.991V313.115H190.968ZM345.622 313.115V232.552H412.906C432.985 232.552 449.191 233.444 461.564 235.228C473.937 236.991 484.63 240.002 493.642 244.255C507.975 251 515.121 259.899 515.121 270.921C515.121 283.368 506.719 293.46 489.951 301.186C480.845 305.443 470.295 308.487 458.292 310.351C446.294 312.188 431.305 313.115 413.33 313.115H345.622ZM374.338 304.571H411.132C437.425 304.571 456.055 301.762 466.98 296.135C478.746 290.148 484.63 282.107 484.63 272.016C484.63 262.54 478.839 255.11 467.261 249.699C460.209 246.393 451.852 244.146 442.091 242.919C432.33 241.711 417.626 241.095 398.01 241.095H374.338V304.571ZM531.652 313.115L611.964 232.552H640.405L719.456 313.115H688.409L666.369 290.803H580.729L558.314 313.115H531.652ZM588.899 282.309H658.056L623.5 247.56L588.899 282.309ZM748.785 313.115V232.552H861.923V241.095H777.502V266.96H848.245V275.395H777.502V304.571H867.807V313.115H748.785Z" stroke="white" stroke-width="3.72163" stroke-miterlimit="22.9256"/>
<path fill-rule="evenodd" clip-rule="evenodd" d="M623.076 86.0734C625.598 107.867 490.152 108.227 394.542 113.924C415.356 116.555 665.727 122.545 665.727 85.3452C665.727 77.0274 644.845 69.4246 610.324 63.5911C499.036 44.2303 231.764 52.214 231.764 97.5545C231.764 134.499 427.648 150.903 529.689 140.225C427.798 143.994 277.096 132.815 274.421 98.54C270.454 47.6947 618.631 47.7153 623.076 86.0734" fill="white"/>
<path fill-rule="evenodd" clip-rule="evenodd" d="M611.251 189.414C426.807 199.88 142.526 184.634 140.206 99.2303C137.92 14.8404 431.611 -3.43543 610.625 9.03953C416.889 -15.8468 65.9652 9.28588 69.3843 101.473C72.4392 183.924 427.014 214.533 611.251 189.414" fill="white"/>
<path fill-rule="evenodd" clip-rule="evenodd" d="M394.351 163.537C532.557 170.992 745.564 160.127 747.303 99.2545C749.018 39.0976 528.955 26.0693 394.824 34.9621C539.988 17.2199 802.928 35.11 800.366 100.85C798.08 159.624 532.398 181.442 394.351 163.537" fill="white"/>
</svg>
